<?xml version="1.0" encoding="UTF-8" standalone="no"?>
<!DOCTYPE svg PUBLIC "-//W3C//DTD SVG 1.1//EN" "http://www.w3.org/Graphics/SVG/1.1/DTD/svg11.dtd">
<svg version="1.1" xmlns="http://www.w3.org/2000/svg" xmlns:xlink="http://www.w3.org/1999/xlink" preserveAspectRatio="xMidYMid meet" viewBox="169.91027541220916 60.14322135387113 299.16978135218466 332.31259584701695" width="295.17" height="328.31"><defs><path d="M392.4 144.77L318.71 171.19L319.53 116.17L320.35 61.14L393.22 89.75L466.08 118.35L392.4 144.77Z" id="b168SD27D0"></path><path d="M247.08 142.51L319.91 171.19L320.79 116.17L321.67 61.14L247.96 87.48L174.24 113.83L247.08 142.51Z" id="aaJdLCy0E"></path><path d="M246.31 196.88L172.63 223.29L173.45 168.27L174.27 113.25L247.14 141.85L320 170.45L246.31 196.88Z" id="d3na0C67VR"></path><path d="M245.41 251.5L318.25 280.18L319.12 225.16L320 170.14L246.29 196.48L172.58 222.82L245.41 251.5Z" id="f2avBIP9aa"></path><path d="M391.45 253.76L317.77 280.18L318.59 225.16L319.41 170.13L392.27 198.74L465.14 227.34L391.45 253.76Z" id="o3ZgLXNHyt"></path><path d="M390.55 308.43L463.38 337.11L464.26 282.08L465.14 227.06L391.42 253.4L317.71 279.74L390.55 308.43Z" id="j1jh7xzlBK"></path><path d="M389.98 363.03L316.29 389.45L317.11 334.43L317.93 279.4L390.8 308.01L463.66 336.61L389.98 363.03Z" id="a5hG9y1OeG"></path><path d="M243.83 360.99L316.75 389.46L317.46 334.43L318.18 279.4L244.54 305.97L170.91 332.53L243.83 360.99Z" id="a1NjtMBVYS"></path><path d="M427.58 184.79L465.17 199.59L465.63 171.19L466.08 142.79L428.03 156.38L389.98 169.98L427.58 184.79Z" id="d26uq7PN6"></path></defs><g><g><use xlink:href="#b168SD27D0" opacity="1" fill="#e7c2f2" fill-opacity="1"></use></g><g><use xlink:href="#aaJdLCy0E" opacity="1" fill="#e0aaea" fill-opacity="1"></use></g><g><use xlink:href="#d3na0C67VR" opacity="1" fill="#e2b7ea" fill-opacity="1"></use></g><g><use xlink:href="#f2avBIP9aa" opacity="1" fill="#cf84de" fill-opacity="1"></use></g><g><use xlink:href="#o3ZgLXNHyt" opacity="1" fill="#d89ae1" fill-opacity="1"></use></g><g><use xlink:href="#j1jh7xzlBK" opacity="1" fill="#e0aaea" fill-opacity="1"></use></g><g><use xlink:href="#a5hG9y1OeG" opacity="1" fill="#eec2f6" fill-opacity="1"></use></g><g><use xlink:href="#a1NjtMBVYS" opacity="1" fill="#e0aaea" fill-opacity="1"></use></g><g><use xlink:href="#d26uq7PN6" opacity="1" fill="#cb77db" fill-opacity="1"></use></g></g></svg>